<svg width="64" height="64" viewBox="0 0 64 64" fill="none" xmlns="http://www.w3.org/2000/svg">
<path fill-rule="evenodd" clip-rule="evenodd" d="M53.0745 62.1255C55.5739 64.6248 59.6261 64.6248 62.1255 62.1255C64.6248 59.6261 64.6248 55.5739 62.1255 53.0745L41.051 32L62.1255 10.9255C64.6248 8.42614 64.6248 4.37388 62.1255 1.87452C59.6261 -0.624833 55.5739 -0.624833 53.0745 1.87452L32 22.949L10.9255 1.87452C8.42614 -0.624839 4.37388 -0.624839 1.87453 1.87452C-0.624827 4.37387 -0.624828 8.42613 1.87452 10.9255L22.949 32L1.87452 53.0745C-0.624839 55.5739 -0.62484 59.6261 1.87452 62.1255C4.37387 64.6248 8.42613 64.6248 10.9255 62.1255L32 41.051L53.0745 62.1255Z" fill="#7098FF"/>
</svg>
